<svg id="Group_1_copy_2" data-name="Group 1 copy 2" xmlns="http://www.w3.org/2000/svg" width="349.124" height="62.094" viewBox="0 0 349.124 62.094">
  <defs>
    <style>
      .cls-1 {
        fill: #15b1af;
      }

      .cls-1, .cls-2 {
        fill-rule: evenodd;
      }

      .cls-2 {
        fill: #818181;
      }
    </style>
  </defs>
  <path id="PADILHA" class="cls-1" d="M345.676,499.859h12.168v-24.48h5.04q7.272,0,10.08-4.68t2.808-13.9q0-9.214-3.168-14t-10.584-4.788H345.676v61.848Zm12.168-35.64V449.243h1.368q2.592,0,3.456,1.728a13.386,13.386,0,0,1,.864,5.616,22.982,22.982,0,0,1-.324,4.428,3.936,3.936,0,0,1-1.368,2.376,5.254,5.254,0,0,1-3.276.828h-0.72Zm46.583,35.64,0.72-10.008h7.488l0.864,10.008h11.736l-5.9-61.848H398.379L392.4,499.859h12.024Zm3.96-51.336h0.576l2.736,31.464h-5.616Zm34.991,51.336H460.01q7.486,0,10.728-4.608t3.168-13.752l-0.144-28.944q-0.073-7.2-3.384-10.872t-9.936-3.672H443.378v61.848Zm12.456-10.944v-40.1H457.2a7.384,7.384,0,0,1,2.664.36,2.087,2.087,0,0,1,1.188,1.4,11.309,11.309,0,0,1,.324,3.132v31.9q0,3.314-3.384,3.312h-2.16Zm48.816,10.944V438.011H492.7v61.848H504.65Zm44.5,0V489.347H536.4V438.011H524.017v61.848h25.128Zm30.167,0v-28.08h5.832v28.08h12.312V438.011H585.144v22.1h-5.832v-22.1H567v61.848h12.312Zm48.383,0,0.72-10.008H635.9l0.864,10.008H648.5l-5.9-61.848H621.647l-5.976,61.848H627.7Zm3.96-51.336h0.576l2.736,31.464h-5.616Z" transform="translate(-345.688 -437.812)"/>
  <path id="DEV" class="cls-2" d="M694.818,499.919V491.6q0-3.744-2.3-5.364t-6.876-1.584l-14.472.072a8,8,0,0,0-5.436,1.692,6.354,6.354,0,0,0-1.836,4.968v8.532h30.924Zm-5.472-6.228H669.294v-0.684a3.679,3.679,0,0,1,.18-1.332,1.042,1.042,0,0,1,.7-0.594,5.649,5.649,0,0,1,1.566-.162H687.69a1.48,1.48,0,0,1,1.656,1.692v1.08Zm5.472-31.5h-6.012v6.48h-7.092v-5.832h-5.832v5.832H669.87v-6.084h-5.976v12.384h30.924v-12.78Zm0-20.555-30.96-3.816v5.9l21.06,2.016-21.06,2.268v5.9l30.96-3.816v-8.46Z" transform="translate(-345.688 -437.812)"/>
</svg>
